<?xml version="1.0" encoding="utf-8"?>
<!-- Generator: Adobe Illustrator 28.1.0, SVG Export Plug-In . SVG Version: 6.00 Build 0)  -->
<svg version="1.1" id="Layer_1" xmlns="http://www.w3.org/2000/svg" xmlns:xlink="http://www.w3.org/1999/xlink" x="0px" y="0px"
	 viewBox="0 0 595.28 841.89" style="enable-background:new 0 0 595.28 841.89;" xml:space="preserve">
<style type="text/css">
	.st0{fill:none;stroke:#010101;stroke-miterlimit:10;}
	.st1{fill:#010101;}
	.st2{font-family:'TimesNewRomanPSMT';}
	.st3{font-size:14.0002px;}
	.st4{letter-spacing:-1;}
	.st5{fill:none;stroke:#ED2224;stroke-miterlimit:10;}
	.st6{fill:none;stroke:#010101;stroke-miterlimit:10;stroke-dasharray:6,6;}
	.st7{fill:none;}
	.st8{font-size:14.002px;}
</style>
<rect x="98.37" y="153.74" class="st0" width="63.25" height="36"/>
<text transform="matrix(1 0 0 1 106.3683 176.7955)"><tspan x="0" y="0" class="st1 st2 st3">B</tspan><tspan x="9.02" y="0" class="st1 st2 st3">i</tspan><tspan x="12.78" y="0" class="st1 st2 st3">o</tspan><tspan x="19.53" y="0" class="st1 st2 st3">m</tspan><tspan x="30.78" y="0" class="st1 st2 st3">a</tspan><tspan x="36.79" y="0" class="st1 st2 st3">s</tspan><tspan x="42.05" y="0" class="st1 st2 st3">s</tspan></text>
<rect x="192.74" y="225.74" class="st0" width="98.5" height="36"/>
<text transform="matrix(1 0 0 1 200.7433 248.7955)"><tspan x="0" y="0" class="st1 st2 st3">S</tspan><tspan x="7.52" y="0" class="st1 st2 st3">n</tspan><tspan x="14.27" y="0" class="st1 st2 st3">o</tspan><tspan x="21.03" y="0" class="st1 st2 st3">w</tspan><tspan x="30.78" y="0" class="st1 st2 st3">-</tspan><tspan x="35.27" y="0" class="st1 st2 st3 st4">f</tspan><tspan x="38.91" y="0" class="st1 st2 st3">r</tspan><tspan x="43.41" y="0" class="st1 st2 st3">e</tspan><tspan x="49.42" y="0" class="st1 st2 st3">e</tspan></text>
<text transform="matrix(1 0 0 1 259.8669 248.7955)"><tspan x="0" y="0" class="st1 st2 st3">d</tspan><tspan x="6.76" y="0" class="st1 st2 st3">a</tspan><tspan x="12.75" y="0" class="st1 st2 st3">t</tspan><tspan x="16.52" y="0" class="st1 st2 st3">e</tspan></text>
<path class="st0" d="M157.97,190.23c14.14,8.84,31.49,19.68,46.74,29.21"/>
<polygon class="st1" points="206.47,216.41 213.1,224.68 202.76,222.35 "/>
<polygon class="st0" points="206.47,216.41 213.1,224.68 202.76,222.35 "/>
<path class="st5" d="M360.6,387.74c0,9.94-28.03,18-62.61,18s-62.61-8.06-62.61-18s28.03-18,62.61-18S360.6,377.8,360.6,387.74"/>
<text transform="matrix(1 0 0 1 260.1183 392.7955)"><tspan x="0" y="0" class="st1 st2 st3">B</tspan><tspan x="9" y="0" class="st1 st2 st3">u</tspan><tspan x="15.76" y="0" class="st1 st2 st3">r</tspan><tspan x="20.26" y="0" class="st1 st2 st3">n</tspan></text>
<text transform="matrix(1 0 0 1 290.8625 392.7955)"><tspan x="0" y="0" class="st1 st2 st3">S</tspan><tspan x="7.52" y="0" class="st1 st2 st3">e</tspan><tspan x="13.52" y="0" class="st1 st2 st3">v</tspan><tspan x="20.29" y="0" class="st1 st2 st3">e</tspan><tspan x="26.29" y="0" class="st1 st2 st3">r</tspan><tspan x="30.78" y="0" class="st1 st2 st3">it</tspan><tspan x="38.31" y="0" class="st1 st2 st3">y</tspan></text>
<path class="st0" d="M128.81,190.05c-1.25,32.18,0.69,101.79,36.19,143.7c17.5,20.65,44.17,33.32,69.05,41.07"/>
<polygon class="st1" points="234.83,371.4 243.48,377.52 232.9,378.13 "/>
<polygon class="st0" points="234.83,371.4 243.48,377.52 232.9,378.13 "/>
<rect x="182.12" y="153.74" class="st0" width="103.75" height="36"/>
<text transform="matrix(1 0 0 1 190.1183 176.7955)"><tspan x="0" y="0" class="st1 st2 st3">C</tspan><tspan x="9" y="0" class="st1 st2 st3">a</tspan><tspan x="15.01" y="0" class="st1 st2 st3">no</tspan><tspan x="28.53" y="0" class="st1 st2 st3">p</tspan><tspan x="35.28" y="0" class="st1 st2 st3">y</tspan></text>
<text transform="matrix(1 0 0 1 235.8688 176.7955)"><tspan x="0" y="0" class="st1 st2 st3">C</tspan><tspan x="9" y="0" class="st1 st2 st3">l</tspan><tspan x="12.75" y="0" class="st1 st2 st3">o</tspan><tspan x="19.51" y="0" class="st1 st2 st3">s</tspan><tspan x="24.78" y="0" class="st1 st2 st3">u</tspan><tspan x="31.53" y="0" class="st1 st2 st3">r</tspan><tspan x="36.04" y="0" class="st1 st2 st3">e</tspan></text>
<path class="st0" d="M235.97,190.05c0.84,7.29,1.82,15.97,2.76,24.16"/>
<polygon class="st1" points="242.21,213.8 239.87,224.14 235.26,214.6 "/>
<polygon class="st0" points="242.21,213.8 239.87,224.14 235.26,214.6 "/>
<path class="st0" d="M211.13,190.01c-10.39,9.3-21.58,21.74-27.14,35.73c-17.72,44.61-25.81,67.53,0,108
	c12.04,18.88,32.75,31.14,53.24,39.05"/>
<polygon class="st1" points="238.18,369.42 246.45,376.05 235.85,376.03 "/>
<polygon class="st0" points="238.18,369.42 246.45,376.05 235.85,376.03 "/>
<rect x="304.87" y="153.74" class="st0" width="72.25" height="36"/>
<text transform="matrix(1 0 0 1 312.8683 176.7955)"><tspan x="0" y="0" class="st1 st2 st3">S</tspan><tspan x="7.51" y="0" class="st1 st2 st3">t</tspan><tspan x="11.27" y="0" class="st1 st2 st3">a</tspan><tspan x="17.26" y="0" class="st1 st2 st3">n</tspan><tspan x="24.02" y="0" class="st1 st2 st3">d</tspan></text>
<text transform="matrix(1 0 0 1 345.8644 176.7955)"><tspan x="0" y="0" class="st1 st2 st3">A</tspan><tspan x="10.49" y="0" class="st1 st2 st3">g</tspan><tspan x="17.24" y="0" class="st1 st2 st3">e</tspan></text>
<path class="st0" d="M316.27,190.23c-12.26,8.67-27.25,19.27-40.54,28.67"/>
<polygon class="st1" points="277.83,221.69 267.64,224.61 273.79,215.98 "/>
<polygon class="st0" points="277.83,221.69 267.64,224.61 273.79,215.98 "/>
<path class="st0" d="M358.29,190.22c8.3,9.62,17.36,22.28,21.7,35.52c4.99,15.2,3.85,20.47,0,36
	c-9.63,38.87-37.44,76.29-58.01,99.89"/>
<polygon class="st1" points="324.79,363.74 315.51,368.85 319.58,359.07 "/>
<polygon class="st0" points="324.79,363.74 315.51,368.85 319.58,359.07 "/>
<rect x="193.49" y="297.74" class="st0" width="121" height="36"/>
<text transform="matrix(1 0 0 1 201.4933 320.7955)"><tspan x="0" y="0" class="st1 st2 st3">S</tspan><tspan x="7.52" y="0" class="st1 st2 st3">n</tspan><tspan x="14.27" y="0" class="st1 st2 st3">o</tspan><tspan x="21.03" y="0" class="st1 st2 st3">w</tspan><tspan x="30.78" y="0" class="st1 st2 st3">-</tspan><tspan x="35.27" y="0" class="st1 st2 st3 st4">f</tspan><tspan x="38.91" y="0" class="st1 st2 st3">r</tspan><tspan x="43.41" y="0" class="st1 st2 st3">e</tspan><tspan x="49.42" y="0" class="st1 st2 st3">e</tspan></text>
<text transform="matrix(1 0 0 1 260.6169 320.7955)"><tspan x="0" y="0" class="st1 st2 st3">d</tspan><tspan x="6.76" y="0" class="st1 st2 st3">u</tspan><tspan x="13.51" y="0" class="st1 st2 st3">r</tspan><tspan x="18" y="0" class="st1 st2 st3">a</tspan><tspan x="24.02" y="0" class="st1 st2 st3">ti</tspan><tspan x="31.52" y="0" class="st1 st2 st3">o</tspan><tspan x="38.28" y="0" class="st1 st2 st3">n</tspan></text>
<path class="st0" d="M244.96,262.05c1.26,7.38,2.77,16.17,4.19,24.45"/>
<polygon class="st1" points="252.56,285.7 250.81,296.15 245.67,286.89 "/>
<polygon class="st0" points="252.56,285.7 250.81,296.15 245.67,286.89 "/>
<path class="st0" d="M264.87,334.05c4.9,7.8,10.8,17.19,16.26,25.87"/>
<polygon class="st1" points="284.08,358.03 286.43,368.36 278.15,361.76 "/>
<polygon class="st0" points="284.08,358.03 286.43,368.36 278.15,361.76 "/>
<rect x="394.99" y="153.74" class="st0" width="82" height="36"/>
<text transform="matrix(1 0 0 1 402.9933 176.7955)"><tspan x="0" y="0" class="st1 st2 st3 st4">T</tspan><tspan x="7.52" y="0" class="st1 st2 st3">o</tspan><tspan x="15.01" y="0" class="st1 st2 st3">p</tspan><tspan x="21.77" y="0" class="st1 st2 st3">og</tspan><tspan x="35.26" y="0" class="st1 st2 st3">r</tspan><tspan x="39.77" y="0" class="st1 st2 st3">a</tspan><tspan x="45.78" y="0" class="st1 st2 st3">ph</tspan><tspan x="59.27" y="0" class="st1 st2 st3">y</tspan></text>
<path class="st0" d="M394.85,187.59c-27.36,9.88-63.72,22.99-94.11,33.96"/>
<polygon class="st1" points="302.29,224.71 291.69,224.81 299.91,218.13 "/>
<polygon class="st0" points="302.29,224.71 291.69,224.81 299.91,218.13 "/>
<path class="st0" d="M431.95,189.76c-8.03,31.13-28.37,98.24-63.96,143.98c-9.23,11.87-21.74,22.46-33.63,30.99"/>
<polygon class="st1" points="336.51,367.51 326.28,370.27 332.55,361.73 "/>
<polygon class="st0" points="336.51,367.51 326.28,370.27 332.55,361.73 "/>
<rect x="309.49" y="225.74" class="st0" width="61" height="36"/>
<text transform="matrix(1 0 0 1 317.4933 248.7955)"><tspan x="0" y="0" class="st1 st2 st3">D</tspan><tspan x="9.75" y="0" class="st1 st2 st3">r</tspan><tspan x="14.25" y="0" class="st1 st2 st3">o</tspan><tspan x="21.02" y="0" class="st1 st2 st3">ug</tspan><tspan x="34.51" y="0" class="st1 st2 st3">h</tspan><tspan x="41.28" y="0" class="st1 st2 st3">t</tspan></text>
<path class="st0" d="M318.74,262.05c-10.44,8.5-23.2,18.88-34.62,28.18"/>
<polygon class="st1" points="286.44,292.84 276.48,296.44 282.02,287.42 "/>
<polygon class="st0" points="286.44,292.84 276.48,296.44 282.02,287.42 "/>
<path class="st0" d="M338.31,262.15c-2.09,18.2-6.39,47.43-14.32,71.59c-2.84,8.67-6.85,17.71-10.87,25.83"/>
<polygon class="st1" points="316.33,360.98 308.62,368.25 310.12,357.76 "/>
<polygon class="st0" points="316.33,360.98 308.62,368.25 310.12,357.76 "/>
<rect x="94.87" y="447.74" class="st0" width="63.25" height="36"/>
<text transform="matrix(1 0 0 1 102.8684 470.7955)"><tspan x="0" y="0" class="st1 st2 st3">B</tspan><tspan x="9.02" y="0" class="st1 st2 st3">i</tspan><tspan x="12.78" y="0" class="st1 st2 st3">o</tspan><tspan x="19.53" y="0" class="st1 st2 st3">m</tspan><tspan x="30.78" y="0" class="st1 st2 st3">a</tspan><tspan x="36.79" y="0" class="st1 st2 st3">s</tspan><tspan x="42.05" y="0" class="st1 st2 st3">s</tspan></text>
<rect x="200.24" y="519.74" class="st0" width="98.5" height="36"/>
<text transform="matrix(1 0 0 1 208.2433 542.7955)"><tspan x="0" y="0" class="st1 st2 st3">S</tspan><tspan x="7.52" y="0" class="st1 st2 st3">n</tspan><tspan x="14.27" y="0" class="st1 st2 st3">o</tspan><tspan x="21.03" y="0" class="st1 st2 st3">w</tspan><tspan x="30.78" y="0" class="st1 st2 st3">-</tspan><tspan x="35.27" y="0" class="st1 st2 st3 st4">f</tspan><tspan x="38.91" y="0" class="st1 st2 st3">r</tspan><tspan x="43.41" y="0" class="st1 st2 st3">e</tspan><tspan x="49.42" y="0" class="st1 st2 st3">e</tspan></text>
<text transform="matrix(1 0 0 1 267.3669 542.7955)"><tspan x="0" y="0" class="st1 st2 st3">d</tspan><tspan x="6.76" y="0" class="st1 st2 st3">a</tspan><tspan x="12.75" y="0" class="st1 st2 st3">t</tspan><tspan x="16.52" y="0" class="st1 st2 st3">e</tspan></text>
<path class="st0" d="M157.22,484.23c15.82,9,35.3,20.09,52.28,29.76"/>
<polygon class="st1" points="210.89,510.75 217.85,518.74 207.43,516.83 "/>
<polygon class="st0" points="210.89,510.75 217.85,518.74 207.43,516.83 "/>
<rect x="235.99" y="591.74" class="st0" width="121" height="36"/>
<text transform="matrix(1 0 0 1 243.9933 614.7955)"><tspan x="0" y="0" class="st1 st2 st3">S</tspan><tspan x="7.52" y="0" class="st1 st2 st3">n</tspan><tspan x="14.27" y="0" class="st1 st2 st3">o</tspan><tspan x="21.03" y="0" class="st1 st2 st3">w</tspan><tspan x="30.78" y="0" class="st1 st2 st3">-</tspan><tspan x="35.27" y="0" class="st1 st2 st3 st4">f</tspan><tspan x="38.91" y="0" class="st1 st2 st3">r</tspan><tspan x="43.41" y="0" class="st1 st2 st3">e</tspan><tspan x="49.42" y="0" class="st1 st2 st3">e</tspan></text>
<text transform="matrix(1 0 0 1 303.1174 614.7955)"><tspan x="0" y="0" class="st1 st2 st3">du</tspan><tspan x="13.52" y="0" class="st1 st2 st3">r</tspan><tspan x="18.02" y="0" class="st1 st2 st3">a</tspan><tspan x="24.02" y="0" class="st1 st2 st3">ti</tspan><tspan x="31.55" y="0" class="st1 st2 st3">o</tspan><tspan x="38.3" y="0" class="st1 st2 st3">n</tspan></text>
<path class="st6" d="M135.77,484.04c11.12,19.46,31.36,51.03,55.73,71.71c14.44,12.25,32.2,22.59,48.98,30.78"/>
<polygon class="st1" points="241.81,583.29 249.38,590.71 238.84,589.63 "/>
<polygon class="st0" points="241.81,583.29 249.38,590.71 238.84,589.63 "/>
<path class="st5" d="M403.1,681.74c0,9.94-28.03,18-62.61,18s-62.61-8.06-62.61-18c0-9.94,28.03-18,62.61-18
	S403.1,671.8,403.1,681.74"/>
<text transform="matrix(1 0 0 1 302.6183 686.7955)"><tspan x="0" y="0" class="st1 st2 st3">B</tspan><tspan x="9" y="0" class="st1 st2 st3">u</tspan><tspan x="15.75" y="0" class="st1 st2 st3">r</tspan><tspan x="20.26" y="0" class="st1 st2 st3">n</tspan></text>
<text transform="matrix(1 0 0 1 333.3625 686.7955)"><tspan x="0" y="0" class="st1 st2 st3">S</tspan><tspan x="7.51" y="0" class="st1 st2 st3">e</tspan><tspan x="13.51" y="0" class="st1 st2 st3">v</tspan><tspan x="20.27" y="0" class="st1 st2 st3">e</tspan><tspan x="26.28" y="0" class="st1 st2 st3">r</tspan><tspan x="30.77" y="0" class="st1 st2 st3">it</tspan><tspan x="38.3" y="0" class="st1 st2 st3">y</tspan></text>
<path class="st0" d="M128.66,484.23c5.05,33.14,20.74,105.18,64.84,143.51c23.5,20.43,55.47,33.19,83.6,41.05"/>
<polygon class="st1" points="277.81,665.37 286.6,671.3 276.03,672.14 "/>
<polygon class="st0" points="277.81,665.37 286.6,671.3 276.03,672.14 "/>
<rect x="176.62" y="447.74" class="st0" width="103.75" height="36"/>
<text transform="matrix(1 0 0 1 184.6183 470.7955)"><tspan x="0" y="0" class="st1 st2 st3">C</tspan><tspan x="9" y="0" class="st1 st2 st3">a</tspan><tspan x="15.01" y="0" class="st1 st2 st3">no</tspan><tspan x="28.53" y="0" class="st1 st2 st3">p</tspan><tspan x="35.28" y="0" class="st1 st2 st3">y</tspan></text>
<text transform="matrix(1 0 0 1 230.3688 470.7955)"><tspan x="0" y="0" class="st1 st2 st3">C</tspan><tspan x="9" y="0" class="st1 st2 st3">l</tspan><tspan x="12.75" y="0" class="st1 st2 st3">o</tspan><tspan x="19.51" y="0" class="st1 st2 st3">s</tspan><tspan x="24.78" y="0" class="st1 st2 st3">u</tspan><tspan x="31.53" y="0" class="st1 st2 st3">r</tspan><tspan x="36.04" y="0" class="st1 st2 st3">e</tspan></text>
<path class="st0" d="M233.68,484.05c2.24,7.46,4.91,16.38,7.42,24.73"/>
<polygon class="st1" points="244.41,507.61 243.93,518.19 237.7,509.62 "/>
<polygon class="st0" points="244.41,507.61 243.93,518.19 237.7,509.62 "/>
<path class="st0" d="M212.46,483.9c-7.98,9.72-16.79,22.57-20.96,35.84c-15.14,48.13-0.98,72.63,35,108
	c16.64,16.35,39.25,28.28,59.95,36.64"/>
<polygon class="st1" points="287.54,661.06 295.64,667.9 285.05,667.6 "/>
<polygon class="st0" points="287.54,661.06 295.64,667.9 285.05,667.6 "/>
<rect x="298.37" y="447.74" class="st0" width="72.25" height="36"/>
<text transform="matrix(1 0 0 1 306.3683 470.7955)"><tspan x="0" y="0" class="st1 st2 st3">S</tspan><tspan x="7.51" y="0" class="st1 st2 st3">t</tspan><tspan x="11.27" y="0" class="st1 st2 st3">a</tspan><tspan x="17.26" y="0" class="st1 st2 st3">n</tspan><tspan x="24.02" y="0" class="st1 st2 st3">d</tspan></text>
<text transform="matrix(1 0 0 1 339.3644 470.7955)"><tspan x="0" y="0" class="st1 st2 st3">A</tspan><tspan x="10.49" y="0" class="st1 st2 st3">g</tspan><tspan x="17.24" y="0" class="st1 st2 st3">e</tspan></text>
<path class="st0" d="M313.48,484.05c-10.32,8.5-22.93,18.88-34.22,28.18"/>
<polygon class="st1" points="281.67,514.78 271.73,518.44 277.22,509.38 "/>
<polygon class="st0" points="281.67,514.78 271.73,518.44 277.22,509.38 "/>
<path class="st6" d="M329.83,484.15c-6.45,24.09-18.15,67.84-25.84,96.55"/>
<polygon class="st1" points="307.43,581.42 301.46,590.17 300.67,579.61 "/>
<polygon class="st0" points="307.43,581.42 301.46,590.17 300.67,579.61 "/>
<path class="st0" d="M370.78,477.84c19.94,8.16,42.96,21.46,54.71,41.91c27.52,47.87-22.1,105.38-56.4,137.08"/>
<polygon class="st1" points="371.67,659.22 361.89,663.3 366.99,654.01 "/>
<polygon class="st0" points="371.67,659.22 361.89,663.3 366.99,654.01 "/>
<path class="st0" d="M261.11,556.05c5.29,7.88,11.68,17.39,17.56,26.15"/>
<polygon class="st1" points="281.5,580.13 284.17,590.39 275.68,584.03 "/>
<polygon class="st0" points="281.5,580.13 284.17,590.39 275.68,584.03 "/>
<path class="st0" d="M307.37,628.05c4.9,7.8,10.8,17.19,16.26,25.87"/>
<polygon class="st1" points="326.58,652.03 328.93,662.36 320.65,655.76 "/>
<polygon class="st0" points="326.58,652.03 328.93,662.36 320.65,655.76 "/>
<rect x="418.49" y="447.74" class="st0" width="82" height="36"/>
<text transform="matrix(1 0 0 1 426.4933 470.7955)"><tspan x="0" y="0" class="st1 st2 st3 st4">T</tspan><tspan x="7.52" y="0" class="st1 st2 st3">o</tspan><tspan x="15.01" y="0" class="st1 st2 st3">p</tspan><tspan x="21.77" y="0" class="st1 st2 st3">og</tspan><tspan x="35.26" y="0" class="st1 st2 st3">r</tspan><tspan x="39.77" y="0" class="st1 st2 st3">a</tspan><tspan x="45.78" y="0" class="st1 st2 st3">ph</tspan><tspan x="59.27" y="0" class="st1 st2 st3">y</tspan></text>
<path class="st0" d="M418.01,480.57c-30.98,10.33-73.78,24.59-108.49,36.16"/>
<polygon class="st1" points="311.05,519.91 300.46,519.76 308.84,513.27 "/>
<polygon class="st0" points="311.05,519.91 300.46,519.76 308.84,513.27 "/>
<path class="st0" d="M459.83,484.08c-0.26,31.63-4.88,99.54-37.33,143.67c-10.04,13.65-24.73,24.72-38.92,33.14"/>
<polygon class="st1" points="385.65,663.73 375.22,665.56 382.24,657.62 "/>
<polygon class="st0" points="385.65,663.73 375.22,665.56 382.24,657.62 "/>
<rect x="354.99" y="519.74" class="st0" width="61" height="36"/>
<text transform="matrix(1 0 0 1 362.9933 542.7955)"><tspan x="0" y="0" class="st1 st2 st3">D</tspan><tspan x="9.75" y="0" class="st1 st2 st3">r</tspan><tspan x="14.25" y="0" class="st1 st2 st3">o</tspan><tspan x="21.02" y="0" class="st1 st2 st3">ug</tspan><tspan x="34.51" y="0" class="st1 st2 st3">h</tspan><tspan x="41.28" y="0" class="st1 st2 st3">t</tspan></text>
<path class="st0" d="M363.49,556.05c-10.91,8.58-24.27,19.09-36.18,28.46"/>
<polygon class="st1" points="329.76,587.03 319.74,590.46 325.43,581.53 "/>
<polygon class="st0" points="329.76,587.03 319.74,590.46 325.43,581.53 "/>
<path class="st0" d="M383.08,556.15c-2.82,18.2-8.21,47.41-16.58,71.6c-2.98,8.62-7.04,17.65-11.05,25.77"/>
<polygon class="st1" points="358.66,654.91 350.97,662.2 352.43,651.71 "/>
<polygon class="st0" points="358.66,654.91 350.97,662.2 352.43,651.71 "/>
<rect x="57.26" y="116.81" class="st7" width="38.3" height="30.85"/>
<text transform="matrix(1 0 0 1 57.2554 126.54)" class="st2 st8">a)</text>
<rect x="55.13" y="416.34" class="st7" width="32.98" height="31.91"/>
<text transform="matrix(1 0 0 1 55.1274 426.0718)" class="st2 st8">b)</text>
</svg>
